# xmcd
#
# Track frame offsets:
#	150
#	16945
#	29196
#	38787
#	51468
#	58798
#	66634
#	81800
#	96044
#	111297
#	122611
#	139858
#	157977
#
# Disc length: 2296 seconds
#
# Revision: 0
# Processed by: cddbd v1.4PL0 Copyright (c) Steve Scherf et al.
# Submitted via: dBpowerAMP V4.0
#
DISCID=b908f60d
DTITLE=varios - varios
DYEAR=2002
DGENRE=Country
TTITLE0=Geisterreiter English
TTITLE1=Ich will den Cowboy als Mann
TTITLE2=7000 Rinder
TTITLE3=Da Sprach der alte Häuptling
TTITLE4=Hounty Mails
TTITLE5=Country Roads Schlechte aufnahme
TTITLE6=Achy Break Heart
TTITLE7=Chatta Hoechee
TTITLE8=Five Six Seven eight
TTITLE9=Cheroker Boogie
TTITLE10=Jill tell me ma
TTITLE11=The spirit of the Hawk
TTITLE12=Cotten Eye Joe
EXTD=
EXTT0=
EXTT1=
EXTT2=
EXTT3=
EXTT4=
EXTT5=
EXTT6=
EXTT7=
EXTT8=
EXTT9=
EXTT10=
EXTT11=
EXTT12=
PLAYORDER=
